<svg id="Capa_1" enable-background="new 0 0 513 513" height="512" viewBox="0 0 513 513" width="512" xmlns="http://www.w3.org/2000/svg"><g><g><g><path d="m483.785 244.675c-8.034-45.526-32.44-84.573-66.417-111.781l8.036 3.561c17.484-47.589 9.167-94.372-19.497-105.975-27.951-11.314-65.271 14.863-86.157 59.15l11.614 5.147c-9.525-1.52-19.237-2.432-29.144-2.432h-87.827c-23.333 0-45.753 4.49-66.504 12.53l10.726-7.826c-20.726-48.917-61.406-78.454-90.86-65.975-29.455 12.481-36.531 62.252-15.805 111.169 3.593 8.479 7.785 16.376 12.415 23.573l6.81-4.968c-18.083 22.328-31.254 49.002-37.366 78.69l-25.809 125.355s112.226 120.242 288.581 120.242c120.241 0 208.419-120.242 208.419-120.242z" fill="#beebeb"/></g><g><path d="m80.353 341.065c1.589-38.277 15.321-206.187 134.039-248.72-23.333 0-45.753 4.49-66.504 12.53l10.726-7.826c-20.726-48.917-61.406-78.454-90.86-65.975-29.454 12.481-36.53 62.252-15.804 111.169 3.593 8.479 7.785 16.376 12.415 23.573l6.81-4.968c-18.083 22.328-31.254 49.002-37.366 78.69l-25.809 125.355s112.226 120.242 288.581 120.242c9.936 0 19.629-.889 29.095-2.395-97.949 0-198.677-57.785-241.42-126.877-2.746-4.438-4.12-9.584-3.903-14.798z" fill="#00d2dc"/></g><g><ellipse cx="384.758" cy="292.748" fill="#0096d2" rx="72.145" ry="80.161"/></g><g><circle cx="192.371" cy="292.748" fill="#0096d2" r="80.161"/></g><g><circle cx="209.739" cy="267.197" fill="#fff" r="12.024"/></g><g><circle cx="402.794" cy="267.197" fill="#fff" r="12.024"/></g><g><path d="m80.262 60.597c-7.272 3.08-14.357 32.397 1.213 69.135 1.405 3.315 2.938 6.55 4.585 9.683l43.027-29.856c-15.57-36.746-41.615-52.065-48.825-48.962z" fill="#0096d2"/></g><g><ellipse cx="296.581" cy="388.942" fill="#fff" rx="72.145" ry="64.129"/></g><g><path d="m296.581 453.071c39.845 0 72.145-28.712 72.145-64.129 0 15.495-14.356 28.056-32.065 28.056-11.667 0-21.879-5.452-27.488-13.604-2.376-3.452-7.205-3.76-9.861-.519-6.911 8.438-19.905 14.123-34.796 14.123-22.136 0-40.081-12.561-40.081-28.056 0 35.417 32.301 64.129 72.146 64.129z" fill="#beebeb"/></g><g><path d="m275.455 327.621c-1.838 4.041-2.923 8.495-2.923 13.224 0 17.708 14.356 32.065 32.065 32.065s32.065-14.356 32.065-32.065c0-1.891-.243-3.718-.556-5.519-11.357-6.629-24.923-10.513-39.524-10.513-7.354 0-14.444.991-21.127 2.808z" fill="#0096d2"/></g></g><g fill="#283c64"><path d="m192.371 260.668c2.036 0 4.015.374 5.883 1.11 4.112 1.621 8.757-.397 10.377-4.508 1.621-4.11-.397-8.756-4.508-10.377-3.745-1.477-7.699-2.226-11.752-2.226-17.671 0-32.048 14.377-32.048 32.048s14.377 32.048 32.048 32.048c14.752 0 27.541-9.987 31.1-24.287 1.067-4.287-1.543-8.628-5.831-9.696-4.286-1.065-8.628 1.543-9.695 5.831-1.781 7.155-8.185 12.152-15.574 12.152-8.849 0-16.048-7.199-16.048-16.048s7.199-16.047 16.048-16.047z"/><path d="m512.878 363.503-21.215-120.219c-7.467-42.31-28.326-79.283-57.757-106.9 8.159-23.499 10.632-47.482 6.925-67.844-4.126-22.663-15.463-38.813-31.923-45.475-31.546-12.77-72.445 13.673-95.65 61.604-3.657-.207-7.336-.324-11.039-.324h-87.828c-16.872 0-33.598 2.251-49.738 6.58-10.565-23.658-25.918-43.595-43.497-56.36-19.52-14.174-39.594-18.03-56.524-10.856-16.93 7.173-28.124 24.277-31.519 48.16-3.187 22.416.887 48.517 11.47 73.495 3.291 7.768 7.135 15.225 11.441 22.213-14.522 21.089-24.838 45.018-30.052 70.347l-25.808 125.356c-.523 2.54.218 5.176 1.987 7.072 1.177 1.261 29.405 31.231 79.89 61.522 46.579 27.947 121.609 61.261 214.54 61.261 51.02 0 104.389-21.407 154.339-61.907 37.446-30.362 59.607-60.343 60.532-61.604 1.29-1.76 1.806-3.971 1.426-6.121zm-109.972-325.607c22.486 9.102 29.834 47.154 17.844 87.211-25.799-20.17-56.792-33.79-90.415-38.71 19.44-36.396 50.386-57.48 72.571-48.501zm-343.589 101.226c-9.465-22.338-13.145-45.423-10.362-65.001 2.574-18.11 10.359-30.782 21.92-35.68s26.079-1.677 40.881 9.071c14.93 10.841 28.137 27.852 37.527 48.228-5.046 1.815-10.018 3.838-14.899 6.068-12.823-27.447-31.03-42.799-43.203-47.685-5.531-2.22-10.269-2.514-14.039-.892-10.283 4.355-12.395 21.617-12.825 28.836-.66 11.071.503 28.868 9.793 50.788 1.188 2.803 2.478 5.574 3.838 8.271-4.017 4.047-7.848 8.264-11.479 12.64-2.617-4.697-5.013-9.595-7.152-14.644zm33.534-11.518c-.873.712-1.735 1.436-2.595 2.162-.48-1.048-.965-2.094-1.415-3.155-13.053-30.799-8.357-52.951-5.285-58.243 5.706 1.432 23.601 12.61 36.553 40.688-9.562 5.367-18.69 11.564-27.258 18.548zm347.992 291.196c-32.822 26.612-84.493 58.335-144.262 58.335-89.039 0-161.08-31.92-205.835-58.698-39.854-23.845-65.786-47.973-74.048-56.118l24.946-121.169c8.163-39.649 29.939-75.569 61.316-101.145 31.377-25.575 70.952-39.66 111.432-39.66h87.828c85.74 0 158.787 61.284 173.687 145.72l20.604 116.753c-6.178 7.868-26.081 31.992-55.668 55.982z"/><path d="m384.758 204.587c-44.192 0-80.146 39.549-80.146 88.161 0 8.493 1.102 16.787 3.234 24.792-3.684-.469-7.441-.727-11.266-.727-6.933 0-13.662.798-20.082 2.294 2.654-8.49 4.033-17.383 4.033-26.359 0-48.612-39.549-88.161-88.161-88.161s-88.162 39.549-88.162 88.161 39.549 88.161 88.162 88.161c4.418 0 8-3.582 8-8s-3.582-8-8-8c-39.79 0-72.162-32.372-72.162-72.161s32.372-72.161 72.162-72.161 72.161 32.371 72.161 72.161c0 11.896-2.938 23.611-8.509 34.02-9.617 5.101-17.947 11.954-24.456 20.071l-60.625-17.239c-4.249-1.207-8.674 1.257-9.883 5.507s1.257 8.675 5.507 9.883l56.151 15.967c-3.814 8.123-5.996 17.006-6.233 26.314l-81.428 18.148c-4.312.961-7.029 5.236-6.068 9.549.831 3.727 4.136 6.262 7.801 6.262.576 0 1.162-.063 1.748-.193l79.503-17.719c7.425 32.908 39.819 57.754 78.542 57.754 39.458 0 72.324-25.803 78.918-59.64l40.169 11.247c.722.202 1.447.298 2.162.298 3.498 0 6.71-2.312 7.699-5.845 1.191-4.255-1.292-8.669-5.546-9.861l-43.37-12.144c-.695-11.938-4.641-23.11-11.039-32.828l44.426-7.739c4.353-.758 7.267-4.902 6.508-9.254s-4.899-7.267-9.254-6.509l-53.808 9.373c-7.717-7-17.02-12.573-27.368-16.274-3.619-9.195-5.464-18.997-5.464-29.148 0-39.79 28.775-72.161 64.146-72.161 35.37 0 64.145 32.371 64.145 72.161 0 34.216-21.608 63.963-51.379 70.732-4.308.979-7.006 5.266-6.027 9.574.844 3.711 4.142 6.228 7.793 6.228.587 0 1.184-.065 1.781-.201 36.986-8.409 63.832-44.718 63.832-86.333-.002-48.612-35.955-88.161-80.147-88.161zm-56.112 135.774c.003.162.015.323.015.484 0 13.269-10.795 24.064-24.064 24.064s-24.064-10.795-24.064-24.064c0-2.194.308-4.349.885-6.434 4.865-1.036 9.939-1.598 15.163-1.598 11.676 0 22.624 2.758 32.065 7.548zm-87.605 25.806c.731.208 1.467.307 2.192.307 3.485 0 6.69-2.296 7.691-5.814.915-3.218-.279-6.532-2.755-8.479 4.66-4.692 10.19-8.701 16.374-11.835-.002.166-.01.332-.01.498 0 22.092 17.973 40.064 40.064 40.064 18.703 0 34.45-12.884 38.842-30.241 8.626 8.081 14.572 18.379 16.556 29.806l-15.165-4.246c-4.255-1.191-8.669 1.292-9.861 5.547-1.191 4.255 1.292 8.669 5.546 9.861l18.305 5.125c-3.664 7.186-12.217 12.238-22.16 12.238-8.586 0-16.594-3.885-20.898-10.14-2.596-3.772-6.667-6.043-11.169-6.231-4.453-.186-8.622 1.702-11.471 5.179-5.653 6.903-16.615 11.191-28.606 11.191-11.517 0-21.844-4.03-27.51-9.909l21.736-4.844c4.312-.961 7.029-5.236 6.068-9.549-.961-4.312-5.234-7.03-9.549-6.068l-22.532 5.021c.694-6.46 2.648-12.602 5.639-18.242zm55.539 78.904c-21.304 0-40.204-9.143-51.877-23.172 6.014 1.99 12.707 3.1 19.812 3.1 15.941 0 30.464-5.66 39.405-15.247 7.504 9.586 19.571 15.247 32.74 15.247 3.491 0 6.878-.406 10.109-1.165-11.761 12.927-29.881 21.237-50.189 21.237z"/><path d="m384.758 260.668c2.036 0 4.015.374 5.883 1.11 4.112 1.621 8.757-.397 10.377-4.508 1.621-4.11-.397-8.756-4.508-10.377-3.745-1.477-7.699-2.226-11.752-2.226-17.672 0-32.049 14.377-32.049 32.048s14.377 32.048 32.049 32.048c14.751 0 27.54-9.987 31.1-24.287 1.067-4.287-1.543-8.628-5.831-9.696-4.29-1.068-8.628 1.543-9.696 5.83-1.781 7.155-8.186 12.152-15.574 12.152-8.849 0-16.049-7.199-16.049-16.048s7.201-16.046 16.05-16.046z"/></g></g></svg>