<svg id="Capa_1" enable-background="new 0 0 513 513" height="512" viewBox="0 0 513 513" width="512" xmlns="http://www.w3.org/2000/svg"><g><g><g><g><path d="m496.576 256.5c0-134.917-109.372-244.288-244.288-244.288s-244.288 109.371-244.288 244.288 109.372 244.288 244.288 244.288c58.211 0 111.666-20.36 153.633-54.348l30.987 2.752-15.882-16.046c46.552-44.479 75.55-107.176 75.55-176.646z" fill="#00d2dc"/></g><g><path d="m407.776 424.975-139.693-71.251.569 18.482c.488 15.845 11.954 29.207 27.54 32.095z" fill="#fff"/></g><g><path d="m319.678 483.941c-134.916 0-244.288-109.372-244.288-244.288 0-102.241 62.833-189.762 151.971-226.183-123.207 12.486-219.361 116.529-219.361 243.03 0 134.916 109.372 244.288 244.288 244.288 32.676 0 63.828-6.465 92.317-18.105-8.196.831-16.512 1.258-24.927 1.258z" fill="#0096d2"/></g><g><path d="m456.915 327.049c-7.02-15.794-21.999-28.43-42.47-28.43-11.125 0-21.497 3.201-30.256 8.728-8.59 5.42-19.301 5.463-27.885.033-10.426-6.595-23.143-9.892-36.698-8.412-29.148 3.183-50.47 29.244-50.47 58.565v.03l181.722 95.142c13.307 3.881 25.094 11.772 33.753 22.596l5.505 6.881c4.935 6.169 14.884 2.679 14.884-5.221v-7.065c0-22.217-4.625-44.19-13.582-64.522z" fill="#beebeb"/></g></g></g><g fill="#283c64"><path d="m246.255 244.906c1.582 1.817 3.803 2.747 6.037 2.747 1.863 0 3.735-.647 5.25-1.967 3.332-2.901 3.681-7.955.78-11.287-15.504-17.806-37.661-28.018-60.788-28.018-23.126 0-45.283 10.212-60.787 28.018-2.901 3.332-2.552 8.385.78 11.287s8.385 2.552 11.287-.78c12.465-14.314 30.223-22.524 48.721-22.524s36.255 8.209 48.72 22.524z"/><path d="m498.74 402.15-17.467-39.65c15.452-33.314 23.303-68.964 23.303-106 0-67.389-26.243-130.744-73.894-178.395s-111.005-73.893-178.394-73.893-130.744 26.243-178.394 73.893-73.894 111.006-73.894 178.395 26.243 130.744 73.894 178.395 111.006 73.894 178.395 73.894c44.627 0 88.484-11.81 126.83-34.152 3.818-2.224 5.109-7.122 2.885-10.939-2.225-3.818-7.123-5.11-10.939-2.885-35.903 20.919-76.975 31.976-118.775 31.976-63.115 0-122.452-24.578-167.081-69.207s-69.209-103.967-69.209-167.082 24.578-122.452 69.207-167.081 103.966-69.207 167.081-69.207 122.452 24.578 167.081 69.207c32.943 32.943 54.945 73.906 64.217 118.481-4.017-.999-8.117-1.519-12.281-1.519-18.724 0-36.498 10.504-48.766 28.819-2.458 3.671-1.476 8.64 2.195 11.099 1.367.916 2.914 1.354 4.445 1.354 2.579 0 5.111-1.245 6.654-3.549 9.247-13.805 22.176-21.723 35.472-21.723 5.241 0 10.379 1.181 15.306 3.507 1.295 10.072 1.965 20.29 1.965 30.612 0 29.804-5.434 58.641-16.133 85.955l-8.218-18.655c-9.097-20.467-28.171-33.181-49.78-33.181-12.26 0-24.201 3.446-34.531 9.966-5.987 3.778-13.394 3.793-19.328.038-12.501-7.909-26.972-11.234-41.849-9.607-16.001 1.748-30.703 9.652-41.397 22.258-6.719 7.921-11.485 17.252-14.04 27.215-7.176-6.192-11.436-15.262-11.436-25.023 0-4.418-3.582-7.986-8-7.986s-8 3.596-8 8.014c0 17.884 9.668 34.257 25.271 42.891v12.877c0 7.868 2.172 15.273 5.991 21.598 1.04 1.682 23.641 32.644 23.641 32.644 11.643 15.942 29.613 25.894 49.305 27.302l101.529 7.259c6.604.472 12.043 1.8 16.628 4.058 7.765 3.825 14.728 9.419 20.134 16.177l5.505 6.88c3.194 3.994 7.831 6.167 12.676 6.167 1.83 0 3.689-.31 5.512-.949 6.648-2.332 10.944-8.391 10.944-15.436v-7.065c0-23.473-4.798-46.266-14.26-67.747zm-221.604-30.889v-4.281l71.894 38.567-50.513-8.955c-12.39-2.11-21.381-12.763-21.381-25.331zm26.553 44.806-1.937-2.652 92.236 16.25 23.559 12.638-76.333-5.457c-14.986-1.072-28.664-8.645-37.525-20.779zm193.311 60.894c0 .126-.017.192-.022.204-.063.1-.358.206-.468.166-.013-.006-.067-.047-.146-.146l-5.505-6.881c-6.795-8.494-15.529-15.531-25.268-20.383-.015-.008-.028-.018-.042-.026l-187.727-100.704c3.581-22.037 21.025-39.908 42.653-42.27 11.235-1.228 22.149 1.271 31.557 7.223 11.206 7.089 25.162 7.079 36.423-.029 7.771-4.904 16.758-7.497 25.991-7.497 15.425 0 28.569 8.852 35.148 23.655l34.504 78.326c8.561 19.437 12.902 40.06 12.902 61.297z"/></g></g></svg>