<svg id="Capa_1" enable-background="new 0 0 511.919 511.919" height="512" viewBox="0 0 511.919 511.919" width="512" xmlns="http://www.w3.org/2000/svg"><path d="m62.715 12.442c-9.731-10.426-27.199-3.54-27.199 10.721v268.758l112.226-188.379z" fill="#beebeb"/><path d="m35.859 20.94c-.104.748-.343 1.428-.343 2.223v268.758l23.476-39.407 56.685-121.959z" fill="#0096d2"/><path d="m401.107 12.442c9.731-10.426 27.199-3.54 27.199 10.721v268.758l-112.226-188.379z" fill="#beebeb"/><path d="m428.306 225.202v-200.549l-55.892 160.908z" fill="#00d2dc"/><circle cx="247.943" cy="291.921" fill="#beebeb" r="212.427"/><circle cx="302.387" cy="393.459" fill="#00d2dc" r="40.081"/><path d="m338.643 402.336c-10.354 0-19.962-3.081-27.91-8.349-7.973-5.283-18.853-5.283-26.825 0-7.948 5.267-17.556 8.349-27.91 8.349-13.435 0-24.006-5.436-24.006-5.436 10.985 26.914 35.971 45.711 65.035 45.711 28.582 0 53.22-18.178 64.478-44.378s-10.144 4.103-22.862 4.103z" fill="#fff"/><path d="m320.405 329.33h-35.402c-7.643 0-11.876 8.86-7.071 14.804l17.702 21.901c3.639 4.501 10.501 4.501 14.139 0l17.702-21.901c4.806-5.944.575-14.804-7.07-14.804z" fill="#0096d2"/><path d="m123.693 291.921c0-102.2 72.182-187.516 168.339-207.817-14.226-3.004-28.968-4.61-44.089-4.61-117.321 0-212.427 95.107-212.427 212.427s95.107 212.427 212.427 212.427c15.121 0 29.862-1.607 44.089-4.61-96.157-20.301-168.339-105.617-168.339-207.817z" fill="#00d2dc"/><g fill="#283c64"><path d="m321.138 387.591c-3.363-2.059-7.08-3.481-10.934-4.284v-8.129c2.057-1.044 3.906-2.507 5.402-4.358l17.702-21.9c4.057-5.019 4.85-11.754 2.069-17.578s-8.518-9.442-14.972-9.442h-35.402c-6.454 0-12.19 3.618-14.972 9.442-2.781 5.823-1.988 12.559 2.068 17.578l17.703 21.9c1.497 1.852 3.345 3.315 5.402 4.358v8.129c-3.853.803-7.571 2.225-10.934 4.284-7.742 4.74-16.834 7.245-26.294 7.245-11.487 0-22.526-3.788-31.084-10.666-3.229-2.595-7.949-2.08-10.544 1.148-2.595 3.229-2.081 7.95 1.148 10.544 2.603 2.092 5.384 3.956 8.295 5.6 12.837 29.612 40.597 48.647 71.238 48.647 28.464 0 54.5-16.338 68.422-42.768 8.219-2.315 15.888-6.195 22.464-11.479 3.229-2.595 3.743-7.316 1.148-10.544-2.595-3.229-7.316-3.743-10.544-1.148-8.558 6.877-19.597 10.665-31.084 10.665-9.463.001-18.555-2.504-26.297-7.244zm-37.372-48.101c-.418-.517-.485-1.083-.198-1.684s.77-.906 1.436-.906h35.402c.666 0 1.149.305 1.436.905.287.601.22 1.167-.199 1.685l-17.702 21.9c-.395.489-.891.591-1.237.591-.347 0-.843-.103-1.237-.591zm13.262 95.621c-19.668 0-37.918-9.885-49.796-26.149 3.526.575 7.119.874 10.745.874 12.226 0 24.026-3.269 34.126-9.452 6.243-3.821 14.962-3.82 21.204 0 9.756 5.973 21.099 9.216 32.878 9.431-11.939 15.847-29.883 25.296-49.157 25.296z"/><path d="m219.371 347.102c0-4.142-3.358-7.5-7.5-7.5h-128.258c-4.142 0-7.5 3.358-7.5 7.5s3.358 7.5 7.5 7.5h128.258c4.142 0 7.5-3.358 7.5-7.5z"/><path d="m476.403 339.602h-13.678c3.395-15.461 5.146-31.401 5.146-47.611 0-41.035-11.176-80.348-32.064-114.484v-154.274c0-9.599-5.771-18.076-14.701-21.595-8.928-3.519-18.931-1.26-25.481 5.757l-72.587 77.772c-23.754-8.608-49.077-13.104-75.093-13.104-34.575 0-67.928 7.933-97.993 22.923l-81.754-87.591c-6.549-7.018-16.553-9.277-25.481-5.757-8.756 3.451-14.701 11.781-14.701 21.1v269.254c0 58.745 22.876 113.973 64.415 155.512s96.768 64.415 155.512 64.415 113.973-22.876 155.512-64.415c12.588-12.589 23.451-26.441 32.494-41.261.398.44.793.886 1.181 1.341 1.484 1.738 3.589 2.631 5.708 2.631 1.722 0 3.453-.59 4.866-1.795 3.15-2.689 3.524-7.423.835-10.574-1.585-1.857-3.234-3.605-4.92-5.254 6.266-12.155 11.368-24.863 15.245-37.988h17.539c4.142 0 7.5-3.358 7.5-7.5s-3.358-7.502-7.5-7.502zm-69.813-321.972c3.54-3.792 7.795-2.518 9.015-2.037 1.134.447 4.646 2.185 5.139 6.588l-33.689 99.442c-15.098-12.375-31.605-22.566-49.127-30.427zm14.216 51.116v87.247c-5.36-6.786-11.142-13.306-17.351-19.515-1.387-1.387-2.792-2.749-4.208-4.094zm-372.589-53.153c1.219-.482 5.476-1.756 9.015 2.037l79.111 84.762c-6.921 4.09-13.636 8.572-20.118 13.44l-72.934-94.794c.911-3.563 3.897-5.039 4.926-5.445zm-5.201 29.687 61.518 79.954c-3.395 2.928-6.704 5.983-9.943 9.136l-18.142-19.794c-2.798-3.053-7.542-3.259-10.597-.461-3.053 2.799-3.26 7.543-.461 10.597l18.782 20.492c-1.734 1.93-3.427 3.889-5.085 5.87l-13.382-6.734c-3.701-1.862-8.208-.372-10.071 3.329-1.862 3.7-.372 8.209 3.329 10.071l10.715 5.392c-10.989 15.134-19.928 31.49-26.663 48.729zm404.258 294.322h-67.065c-4.142 0-7.5 3.358-7.5 7.5s3.358 7.5 7.5 7.5h62.867c-3.125 9.716-6.956 19.115-11.434 28.142-12.072-8.392-22.998-12.135-23.664-12.358-3.925-1.318-8.178.798-9.496 4.725-1.317 3.927.798 8.178 4.725 9.496.143.048 10.39 3.556 21.23 11.407-35.701 60.344-101.445 100.905-176.495 100.905-61.515 0-116.78-27.25-154.375-70.307 46.866-31.905 102.631-39.934 103.174-40 4.109-.499 7.039-4.233 6.542-8.344-.496-4.112-4.226-7.044-8.344-6.547-2.374.286-60.628 8.573-110.827 43.181-.01.007-.017.014-.026.02-25.775-34.269-41.07-76.846-41.07-122.931 0-112.998 91.93-204.928 204.927-204.928s204.927 91.93 204.927 204.928c.001 16.388-1.945 32.327-5.596 47.611z"/><path d="m236.5 362.148h-.081c-4.142 0-7.459 3.358-7.459 7.5s3.398 7.5 7.54 7.5 7.5-3.358 7.5-7.5-3.357-7.5-7.5-7.5z"/><path d="m249.446 354.602c4.142 0 7.5-3.358 7.5-7.5s-3.358-7.5-7.5-7.5h-.08c-4.142 0-7.46 3.358-7.46 7.5s3.398 7.5 7.54 7.5z"/><path d="m359.232 365.639c0-4.142-3.358-7.5-7.5-7.5h-.08c-4.142 0-7.46 3.358-7.46 7.5s3.398 7.5 7.54 7.5 7.5-3.357 7.5-7.5z"/><path d="m333.258 285.644c-1.661 3.794.069 8.217 3.864 9.877 3.795 1.664 8.218-.069 9.877-3.864 5.199-11.879 16.907-19.555 29.826-19.555s24.627 7.676 29.826 19.555c1.232 2.816 3.985 4.495 6.875 4.495 1.004 0 2.024-.203 3.003-.631 3.795-1.661 5.525-6.083 3.864-9.877-7.588-17.338-24.689-28.542-43.567-28.542s-35.98 11.204-43.568 28.542z"/><path d="m172.166 295.522c3.797 1.664 8.218-.068 9.878-3.863 5.2-11.88 16.907-19.556 29.826-19.556s24.627 7.676 29.827 19.556c1.232 2.816 3.985 4.495 6.875 4.495 1.004 0 2.025-.203 3.003-.631 3.794-1.661 5.524-6.083 3.863-9.878-7.588-17.338-24.69-28.541-43.568-28.541-18.877 0-35.979 11.203-43.567 28.541-1.661 3.794.069 8.216 3.863 9.877z"/></g></svg>